# Blender v2.76 (sub 0) OBJ File: 'ovendeurraam.blend'
# www.blender.org
mtllib ovendeurraam.mtl
o Cube_Cube.000
v -0.753000 0.335000 2.270000
v -0.753000 1.125000 2.270000
v -0.753000 0.335000 2.230000
v -0.753000 1.125000 2.230000
v 0.753000 0.335000 2.270000
v 0.753000 1.125000 2.270000
v 0.753000 0.335000 2.230000
v 0.753000 1.125000 2.230000
vn -1.000000 -0.000000 0.000000
vn -0.000000 0.000000 -1.000000
vn 1.000000 -0.000000 0.000000
vn 0.000000 0.000000 1.000000
vn 0.000000 -1.000000 0.000000
vn 0.000000 1.000000 -0.000000
usemtl None
s off
f 2//1 4//1 3//1 1//1
f 4//2 8//2 7//2 3//2
f 8//3 6//3 5//3 7//3
f 6//4 2//4 1//4 5//4
f 1//5 3//5 7//5 5//5
f 6//6 8//6 4//6 2//6
